# xmcd
#
# Track frame offsets:
#  150
#  16688
#  36901
#  66991
#  87954
#  104567
#  128642
#  150317
#  176763
#  201776
#  219401
#  240664
#
# Disc length: 3508 seconds
#
# Revision: 0
# Processed by: cddbd v1.4PL0 Copyright (c) Steve Scherf et al.
# Submitted via: AltoMP3_Maker 3.0
#
DISCID=9b0db20c
DTITLE=Kinzel and Hyde - Oklahoma Credit Card
DYEAR=1900
DGENRE=
TTITLE0=Busy Bootin' Too Many Drivers
TTITLE1=(Gimme) Somethgin' Fried
TTITLE2=Got My Eye On You
TTITLE3=Mess With My Bread
TTITLE4=Lonesome LaLa
TTITLE5=Can't Lose What You Never Had
TTITLE6=Boogie In The Dark Revisited
TTITLE7=Live High (Spaghetti Western)
TTITLE8=Ode To rockinitis
TTITLE9=Muddy Tribute
TTITLE10=Northern Town
TTITLE11=Too Many Drivers
EXTD=
EXTT0=
EXTT1=
EXTT2=
EXTT3=
EXTT4=
EXTT5=
EXTT6=
EXTT7=
EXTT8=
EXTT9=
EXTT10=
EXTT11=
PLAYORDER=
